<!DOCTYPE svg PUBLIC "-//W3C//DTD SVG 20010904//EN" "http://www.w3.org/TR/2001/REC-SVG-20010904/DTD/svg10.dtd">
<svg version="1.0" xmlns="http://www.w3.org/2000/svg" width="300px" height="300px" viewBox="0 0 1000 1000" preserveAspectRatio="xMidYMid meet">
    <g id="layer101" fill="#000000" stroke="none">
        <path d="M310 762 c0 -4 14 -21 30 -37 l30 -29 -39 -40 c-45 -46 -72 -101 -70 -143 1 -21 3 -17 10 16 20 102 96 171 211 190 35 6 43 9 23 10 -16 0 -47 -4 -69 -10 -36 -10 -40 -9 -75 23 l-36 33 34 -37 c19 -21 30 -38 24 -38 -6 0 -25 16 -42 35 -17 20 -31 32 -31 27z" />
        <path d="M626 741 c-23 -24 -35 -29 -60 -25 -29 5 -28 4 7 -9 95 -37 155 -122 159 -227 1 -54 2 -54 5 -10 6 67 -14 125 -63 179 l-43 48 24 23 c14 13 25 31 24 39 0 12 -3 10 -8 -4 -11 -26 -49 -60 -58 -52 -4 4 6 21 22 37 16 17 26 30 24 30 -3 0 -18 -13 -33 -29z" />
        <path d="M606 590 c12 -14 26 -34 32 -45 6 -11 12 -14 12 -7 0 7 -15 27 -32 45 -18 18 -23 21 -12 7z" />
        <path d="M437 513 c-15 -15 -6 -61 16 -79 l22 -19 -19 22 c-12 15 -17 32 -14 53 5 32 5 33 -5 23z" />
        <path d="M653 485 c0 -22 2 -30 4 -17 2 12 2 30 0 40 -3 9 -5 -1 -4 -23z" />
        <path d="M490 482 c0 -5 23 -31 50 -58 28 -27 48 -55 45 -62 -3 -8 0 -10 6 -6 15 9 89 -66 89 -91 0 -12 13 -34 29 -49 l29 -27 5 33 c3 21 -1 39 -10 49 -11 14 -12 18 -1 22 7 3 2 6 -12 6 -16 1 -41 16 -64 40 -37 38 -38 40 -22 62 9 13 16 28 16 34 -1 5 -8 -2 -16 -17 -8 -16 -18 -28 -23 -28 -12 0 -51 45 -51 59 0 7 -4 10 -9 7 -4 -3 -16 3 -26 14 -19 21 -35 26 -35 12z m110 -97 c52 -52 92 -95 90 -95 -3 0 -48 43 -100 95 -52 52 -92 95 -90 95 3 0 48 -43 100 -95z m127 -161 c-10 -10 -37 16 -37 34 0 13 4 12 22 -5 12 -13 19 -25 15 -29z" />
        <path d="M261 455 c-1 -40 29 -103 67 -141 34 -35 96 -68 115 -61 7 2 -2 7 -19 11 -38 9 -109 67 -130 108 -8 16 -19 48 -24 71 -7 35 -8 37 -9 12z" />
        <path d="M402 368 c16 -16 34 -28 41 -28 6 0 3 6 -8 12 -11 6 -29 18 -40 27 -12 9 -8 4 7 -11z" />
        <path d="M607 279 c-21 -11 -63 -24 -95 -28 -31 -5 -51 -9 -44 -10 6 0 12 -10 12 -21 0 -11 7 -20 15 -20 8 0 15 9 15 19 0 14 10 21 33 26 33 8 107 42 107 50 0 7 0 7 -43 -16z" />
    </g>
    <g id="layer102" fill="#000000" stroke="none">
        <path d="M321 778 c2 -2 22 -19 44 -38 l40 -35 -34 38 c-19 20 -39 37 -45 37 -5 0 -7 -1 -5 -2z" />
        <path d="M740 291 c0 -6 5 -13 10 -16 6 -4 8 -11 5 -16 -3 -5 1 -6 10 -3 14 6 14 8 -1 25 -19 21 -24 23 -24 10z" />
    </g>
    <g id="layer103" fill="#000000" stroke="none">
        <path d="M478 713 c12 -2 32 -2 45 0 12 2 2 4 -23 4 -25 0 -35 -2 -22 -4z" />
        <path d="M491 498 c2 -2 16 -13 30 -26 20 -17 29 -20 34 -11 5 7 4 10 -2 6 -6 -4 -18 2 -28 13 -10 11 -23 20 -28 20 -6 0 -8 -1 -6 -2z" />
        <path d="M620 383 c0 -5 12 -20 28 -34 l27 -24 -25 30 c-14 17 -26 32 -27 34 -2 2 -3 0 -3 -6z" />
    </g>
    <g id="layer104" fill="#000000" stroke="none">
        <path d="M353 485 c0 -22 2 -30 4 -17 2 12 2 30 0 40 -3 9 -5 -1 -4 -23z" />
        <path d="M595 382 c49 -51 92 -92 94 -92 3 0 -17 23 -44 50 -27 28 -45 50 -40 50 4 0 -2 11 -15 25 -13 14 -26 23 -28 20 -3 -3 -17 5 -31 17 -14 12 14 -19 64 -70z" />
    </g>
    <g id="layer105" fill="#000000" stroke="none">
        <path d="M310 747 c0 -2 15 -16 33 -33 l32 -29 -29 33 c-28 30 -36 37 -36 29z" />
    </g>
    <g id="layer106" fill="#000000" stroke="none">
        <path d="M345 730 c16 -16 33 -30 39 -30 5 0 -3 14 -19 30 -16 17 -33 30 -39 30 -5 0 3 -13 19 -30z" />
        <path d="M630 735 c-13 -14 -21 -27 -18 -30 2 -3 17 9 33 25 16 17 24 30 19 30 -6 0 -21 -11 -34 -25z" />
        <path d="M730 275 c7 -8 17 -15 22 -15 6 0 5 7 -2 15 -7 8 -17 15 -22 15 -6 0 -5 -7 2 -15z" />
        <path d="M690 258 c0 -18 27 -44 37 -34 4 4 -3 16 -15 29 -18 17 -22 18 -22 5z" />
    </g>
    <g id="layer107" fill="#f34336" stroke="none">
        <path d="M230 870 c0 -13 7 -20 20 -20 13 0 20 7 20 20 0 13 -7 20 -20 20 -13 0 -20 -7 -20 -20z" />
        <path d="M390 684 c-52 -29 -74 -53 -100 -109 -43 -89 -9 -216 72 -275 43 -32 125 -53 166 -44 36 7 122 46 122 54 0 4 -11 17 -24 29 -23 22 -25 22 -49 6 -27 -17 -88 -22 -128 -10 -28 9 -80 55 -74 65 3 5 -2 11 -11 14 -8 3 -12 11 -9 16 4 6 1 17 -5 25 -30 36 20 139 82 171 40 21 125 15 161 -12 61 -45 83 -132 50 -201 -16 -34 -15 -35 9 -60 l25 -25 23 46 c45 94 36 183 -28 257 -47 54 -101 79 -177 79 -46 0 -71 -6 -105 -26z" />
        <path d="M462 524 c-48 -33 -1 -121 53 -100 17 6 17 8 -4 29 -21 24 -28 47 -13 47 5 0 17 -9 27 -20 22 -24 38 -16 29 13 -13 45 -53 59 -92 31z" />
        <path d="M110 290 c0 -13 7 -20 20 -20 13 0 20 7 20 20 0 13 -7 20 -20 20 -13 0 -20 -7 -20 -20z" />
        <path d="M850 240 c0 -13 7 -20 20 -20 13 0 20 7 20 20 0 13 -7 20 -20 20 -13 0 -20 -7 -20 -20z" />
    </g>
    <g id="layer108" fill="#ff9800" stroke="none">
        <path d="M395 857 c-87 -29 -164 -86 -205 -152 -17 -28 -19 -37 -9 -53 15 -24 5 -52 -21 -59 -26 -7 -34 -39 -28 -124 10 -132 92 -249 216 -307 49 -23 70 -27 152 -27 82 0 103 4 153 27 60 28 67 38 42 58 -8 7 -15 25 -15 40 0 34 -24 59 -34 35 -7 -19 -81 -54 -113 -55 -16 0 -23 -6 -23 -19 0 -30 -19 -35 -29 -8 -7 17 -23 28 -55 37 -55 15 -120 69 -147 121 -46 92 -30 206 41 281 l40 42 -25 26 c-27 28 -33 60 -12 60 7 0 28 -15 46 -34 29 -29 37 -33 58 -25 31 12 99 12 140 0 29 -9 34 -6 58 25 14 19 32 34 40 34 28 0 26 -23 -4 -54 l-31 -32 28 -21 c15 -11 40 -44 56 -74 38 -70 41 -152 7 -222 -13 -26 -27 -47 -33 -47 -6 0 -5 -6 2 -15 7 -9 20 -13 28 -10 9 3 27 -6 43 -21 l27 -26 31 53 c110 193 34 435 -167 527 -68 31 -192 40 -257 19z m-187 -320 c4 -20 -25 -34 -40 -19 -15 15 -1 44 19 40 10 -2 19 -11 21 -21z" />
    </g>
    <g id="layer109" fill="#f7c339" stroke="none">
        <path d="M790 760 c0 -13 7 -20 20 -20 13 0 20 7 20 20 0 13 -7 20 -20 20 -13 0 -20 -7 -20 -20z" />
        <path d="M120 655 c-26 -32 13 -81 48 -59 22 14 27 41 12 59 -16 19 -44 19 -60 0z" />
        <path d="M800 175 c-15 -18 -10 -45 13 -59 34 -22 73 27 47 59 -16 19 -44 19 -60 0z" />
    </g>
    <g id="layer110" fill="#fdfcef" stroke="none">
        <path d="M434 611 c-53 -32 -74 -68 -74 -124 0 -61 27 -108 74 -131 51 -24 121 -19 155 10 3 2 -6 15 -18 28 -18 20 -29 23 -61 19 -29 -4 -42 -1 -59 16 -44 44 -13 121 48 121 39 0 75 -44 67 -81 -4 -20 2 -33 24 -54 l30 -28 16 38 c53 128 -87 256 -202 186z" />
        <path d="M164 545 c-4 -9 -2 -21 4 -27 15 -15 44 -1 40 19 -4 23 -36 29 -44 8z" />
    </g>

</svg>
